# xmcd
#
# Track frame offsets:
#	151
#	15277
#	30404
#	43353
#	59977
#	81397
#	96297
#	109098
#	123625
#	136724
#	149783
#
# Disc length: 2166 seconds
#
# Revision: 1
# Processed by: cddbd v1.5.2PL0 Copyright (c) Steve Scherf et al.
# Submitted via: audiograbber 1.83.01
#
DISCID=a108740b
DTITLE=Cindy Stephens - Cindy Stephens
DYEAR=1900
DGENRE=
TTITLE0=Wish
TTITLE1=In The Meantime
TTITLE2=Dirt Road Dancing
TTITLE3=Seeing Things My Way
TTITLE4=Angels Don´t Always Have Wings
TTITLE5=Hold Me
TTITLE6=You´re Gonna Miss Me
TTITLE7=Blue Memories
TTITLE8=Shadow In The Dark
TTITLE9=Sorry
TTITLE10=That´s Enough Of That
EXTD=
EXTT0=
EXTT1=
EXTT2=
EXTT3=
EXTT4=
EXTT5=
EXTT6=
EXTT7=
EXTT8=
EXTT9=
EXTT10=
PLAYORDER=
